<svg width="18" height="18" viewBox="0 0 18 18" xmlns="http://www.w3.org/2000/svg">
  <path fill="rgb(29, 99, 237)"
    d="M9.1 0.5L9.15 0.51L9.21 0.52L9.26 0.53L9.31 0.54L9.37 0.56L9.42 0.57L9.47 0.59L9.52 0.62L15.77 3.52L15.86 3.57L15.94 3.62L16.02 3.68L16.09 3.74L16.16 3.81L16.22 3.88L16.27 3.96L16.32 4.04L16.36 4.13L16.4 4.21L16.42 4.31L17.97 10.84L17.99 10.94L18 11.03L18 11.13L17.99 11.22L17.98 11.31L17.96 11.4L17.93 11.49L17.89 11.58L17.85 11.66L17.8 11.74L17.74 11.82L13.41 17.06L13.34 17.14L13.27 17.2L13.2 17.26L13.12 17.32L13.04 17.36L12.95 17.4L12.86 17.44L12.76 17.46L12.67 17.48L12.57 17.49L12.47 17.5L5.53 17.5L5.43 17.5L5.33 17.48L5.24 17.47L5.14 17.44L5.05 17.41L4.97 17.36L4.88 17.32L4.8 17.26L4.73 17.2L4.66 17.14L4.59 17.07L0.26 11.82L0.26 11.82L0.25 11.81L0.24 11.8L0.24 11.79L0.23 11.78L0.22 11.77L0.21 11.76L0.21 11.75L0.2 11.74L0.19 11.73L0.15 11.66L0.11 11.58L0.08 11.51L0.05 11.43L0.03 11.35L0.01 11.26L0 11.18L0 11.1L0.01 11.01L0.02 10.93L0.03 10.85L1.58 4.31L1.6 4.22L1.64 4.13L1.68 4.04L1.72 3.96L1.78 3.88L1.84 3.81L1.9 3.74L1.98 3.68L2.05 3.62L2.14 3.57L2.22 3.53L8.48 0.62L8.52 0.6L8.56 0.58L8.6 0.57L8.64 0.55L8.68 0.54L8.72 0.53L8.77 0.52L8.81 0.52L8.85 0.51L8.89 0.5L8.94 0.5L8.99 0.5L9.05 0.5L9.1 0.5ZM8.87 2.8L8.81 2.84L8.76 2.88L8.72 2.92L8.69 2.96L8.66 3L8.64 3.04L8.63 3.09L8.63 3.13L8.63 3.14L8.63 3.15L8.63 3.17L8.62 3.2L8.62 3.21L8.62 3.23L8.63 3.24L8.63 3.27L8.63 3.31L8.64 3.34L8.64 3.38L8.65 3.41L8.65 3.45L8.66 3.48L8.66 3.51L8.67 3.55L8.68 3.58L8.69 3.66L8.69 3.73L8.7 3.8L8.71 3.87L8.72 3.93L8.72 4L8.72 4.06L8.72 4.12L8.72 4.18L8.72 4.24L8.71 4.27L8.7 4.29L8.69 4.31L8.68 4.33L8.67 4.35L8.66 4.37L8.64 4.38L8.63 4.4L8.61 4.42L8.6 4.43L8.59 4.59L8.52 4.59L8.45 4.6L8.39 4.61L8.32 4.61L8.25 4.62L8.18 4.64L8.11 4.65L8.05 4.66L7.98 4.67L7.91 4.69L7.62 4.76L7.34 4.85L7.07 4.95L6.81 5.07L6.56 5.2L6.32 5.35L6.09 5.5L5.87 5.67L5.66 5.86L5.46 6.05L5.45 6.04L5.44 6.03L5.42 6.02L5.4 6.01L5.39 6L5.37 5.99L5.35 5.97L5.33 5.96L5.31 5.96L5.29 5.96L5.27 5.96L5.25 5.97L5.23 5.97L5.2 5.96L5.18 5.96L5.16 5.96L5.13 5.95L5.11 5.93L5.06 5.9L5.01 5.86L4.96 5.82L4.91 5.78L4.86 5.74L4.81 5.69L4.76 5.65L4.71 5.6L4.66 5.54L4.6 5.49L4.58 5.46L4.55 5.44L4.53 5.41L4.51 5.39L4.48 5.36L4.46 5.34L4.44 5.31L4.41 5.29L4.38 5.26L4.36 5.24L4.35 5.23L4.34 5.22L4.32 5.21L4.29 5.18L4.27 5.17L4.25 5.15L4.22 5.14L4.2 5.12L4.17 5.11L4.15 5.1L4.12 5.09L4.09 5.08L4.06 5.08L4.04 5.08L4.01 5.07L3.98 5.07L3.94 5.08L3.91 5.08L3.88 5.09L3.85 5.1L3.82 5.12L3.79 5.14L3.76 5.16L3.74 5.18L3.71 5.2L3.68 5.25L3.65 5.31L3.64 5.36L3.64 5.42L3.64 5.48L3.66 5.54L3.68 5.59L3.71 5.65L3.75 5.7L3.81 5.74L3.81 5.74L3.81 5.74L3.83 5.76L3.85 5.78L3.87 5.79L3.87 5.79L3.88 5.8L3.89 5.81L3.92 5.83L3.95 5.85L3.98 5.87L4.01 5.88L4.04 5.9L4.07 5.92L4.1 5.93L4.14 5.95L4.17 5.96L4.2 5.98L4.26 6.02L4.33 6.06L4.39 6.1L4.45 6.14L4.51 6.17L4.56 6.21L4.61 6.25L4.66 6.28L4.71 6.32L4.76 6.36L4.77 6.38L4.78 6.4L4.79 6.43L4.8 6.45L4.81 6.47L4.82 6.5L4.82 6.52L4.82 6.54L4.83 6.56L4.83 6.57L4.95 6.68L4.77 6.97L4.61 7.27L4.47 7.58L4.35 7.9L4.26 8.23L4.19 8.57L4.15 8.91L4.14 9.26L4.15 9.61L4.19 9.97L4.03 10.01L4.02 10.03L4 10.05L3.99 10.06L3.97 10.08L3.96 10.1L3.94 10.12L3.92 10.13L3.9 10.15L3.89 10.16L3.87 10.17L3.81 10.19L3.75 10.2L3.69 10.21L3.62 10.22L3.56 10.23L3.49 10.24L3.42 10.25L3.35 10.26L3.27 10.27L3.2 10.28L3.16 10.28L3.12 10.28L3.09 10.28L3.05 10.28L3.02 10.28L2.99 10.29L2.95 10.29L2.91 10.29L2.88 10.3L2.84 10.3L2.83 10.31L2.81 10.31L2.8 10.31L2.77 10.32L2.76 10.32L2.75 10.32L2.74 10.33L2.73 10.33L2.73 10.33L2.67 10.35L2.61 10.38L2.55 10.41L2.51 10.45L2.47 10.5L2.44 10.55L2.42 10.6L2.41 10.66L2.4 10.71L2.41 10.77L2.43 10.83L2.46 10.88L2.49 10.93L2.54 10.96L2.59 11L2.64 11.02L2.7 11.04L2.76 11.05L2.83 11.05L2.89 11.04L2.9 11.04L2.91 11.04L2.94 11.03L2.95 11.03L2.96 11.03L2.97 11.02L2.98 11.02L2.99 11.02L3 11.02L3.01 11.02L3.04 11L3.08 10.99L3.11 10.98L3.15 10.97L3.18 10.96L3.21 10.94L3.24 10.93L3.27 10.92L3.31 10.9L3.34 10.89L3.41 10.86L3.48 10.84L3.55 10.82L3.62 10.8L3.69 10.77L3.75 10.76L3.81 10.74L3.87 10.72L3.93 10.71L3.99 10.7L4.02 10.7L4.04 10.71L4.07 10.71L4.09 10.72L4.12 10.73L4.14 10.74L4.16 10.75L4.18 10.76L4.19 10.77L4.21 10.78L4.37 10.75L4.5 11.08L4.65 11.4L4.82 11.71L5.01 12L5.22 12.27L5.45 12.53L5.7 12.77L5.96 12.99L6.24 13.19L6.53 13.38L6.46 13.53L6.47 13.55L6.48 13.57L6.49 13.59L6.49 13.62L6.5 13.64L6.5 13.66L6.5 13.68L6.5 13.7L6.5 13.72L6.5 13.74L6.47 13.8L6.45 13.85L6.42 13.91L6.39 13.97L6.35 14.02L6.32 14.08L6.28 14.14L6.24 14.21L6.2 14.27L6.16 14.33L6.14 14.36L6.12 14.39L6.1 14.42L6.08 14.45L6.06 14.47L6.03 14.5L6.01 14.53L6 14.56L5.98 14.59L5.96 14.62L5.95 14.63L5.94 14.65L5.93 14.67L5.92 14.69L5.92 14.7L5.91 14.71L5.91 14.72L5.89 14.78L5.87 14.85L5.87 14.91L5.87 14.97L5.88 15.02L5.91 15.08L5.93 15.13L5.97 15.17L6.02 15.21L6.07 15.24L6.13 15.26L6.18 15.27L6.24 15.27L6.3 15.26L6.36 15.25L6.41 15.22L6.47 15.18L6.51 15.14L6.55 15.09L6.59 15.03L6.59 15.03L6.6 15.02L6.61 15L6.61 14.99L6.62 14.98L6.62 14.97L6.62 14.96L6.63 14.95L6.63 14.94L6.65 14.91L6.66 14.87L6.67 14.84L6.68 14.8L6.69 14.77L6.7 14.74L6.71 14.71L6.72 14.67L6.73 14.64L6.74 14.61L6.77 14.53L6.8 14.46L6.82 14.39L6.85 14.32L6.87 14.25L6.9 14.18L6.93 14.12L6.96 14.06L6.99 14L7.03 13.95L7.04 13.94L7.06 13.93L7.07 13.92L7.09 13.91L7.1 13.9L7.12 13.9L7.14 13.89L7.15 13.88L7.17 13.88L7.19 13.88L7.28 13.73L7.54 13.82L7.81 13.89L8.08 13.95L8.36 14L8.65 14.03L8.93 14.04L9.22 14.04L9.51 14.02L9.8 13.98L10.09 13.92L10.16 13.91L10.22 13.89L10.29 13.87L10.35 13.86L10.42 13.84L10.48 13.82L10.54 13.8L10.61 13.78L10.67 13.76L10.73 13.73L10.74 13.75L10.75 13.76L10.77 13.8L10.79 13.83L10.8 13.86L10.81 13.87L10.81 13.87L10.83 13.88L10.85 13.89L10.87 13.89L10.89 13.9L10.91 13.91L10.93 13.92L10.95 13.93L10.97 13.95L10.99 13.96L11 13.99L11.03 14.04L11.06 14.09L11.09 14.15L11.11 14.21L11.14 14.27L11.16 14.33L11.19 14.39L11.21 14.46L11.24 14.53L11.26 14.6L11.27 14.63L11.28 14.67L11.29 14.7L11.3 14.73L11.31 14.77L11.32 14.8L11.33 14.83L11.34 14.86L11.36 14.9L11.37 14.93L11.37 14.94L11.38 14.95L11.38 14.96L11.39 14.97L11.41 15.01L11.41 15.02L11.42 15.03L11.45 15.08L11.49 15.14L11.54 15.18L11.59 15.21L11.64 15.24L11.7 15.26L11.76 15.27L11.82 15.27L11.88 15.26L11.93 15.23L11.99 15.2L12.03 15.17L12.07 15.12L12.1 15.07L12.12 15.02L12.13 14.96L12.14 14.9L12.13 14.84L12.12 14.78L12.09 14.72L12.08 14.69L12.07 14.67L12.06 14.66L12.06 14.65L12.05 14.64L12.05 14.63L12.04 14.62L12.03 14.58L12.01 14.55L11.99 14.52L11.97 14.5L11.95 14.47L11.93 14.44L11.91 14.41L11.88 14.39L11.86 14.36L11.84 14.33L11.8 14.26L11.76 14.2L11.72 14.14L11.69 14.08L11.65 14.03L11.62 13.97L11.59 13.91L11.56 13.86L11.53 13.8L11.51 13.75L11.5 13.72L11.5 13.7L11.5 13.67L11.5 13.65L11.51 13.63L11.51 13.61L11.52 13.59L11.52 13.57L11.53 13.55L11.54 13.53L11.54 13.53L11.53 13.52L11.52 13.5L11.52 13.49L11.51 13.47L11.5 13.45L11.5 13.43L11.49 13.42L11.48 13.4L11.48 13.39L11.78 13.2L12.07 12.99L12.33 12.76L12.58 12.52L12.81 12.25L13.02 11.98L13.21 11.69L13.37 11.38L13.52 11.07L13.64 10.74L13.65 10.75L13.67 10.75L13.69 10.75L13.71 10.75L13.72 10.76L13.74 10.76L13.76 10.76L13.79 10.77L13.8 10.77L13.81 10.76L13.83 10.75L13.85 10.74L13.87 10.73L13.88 10.72L13.9 10.71L13.93 10.7L13.95 10.7L13.98 10.69L14.01 10.7L14.07 10.7L14.13 10.72L14.19 10.73L14.25 10.75L14.31 10.77L14.38 10.79L14.45 10.81L14.52 10.83L14.59 10.86L14.66 10.88L14.69 10.89L14.73 10.91L14.76 10.92L14.79 10.93L14.82 10.95L14.85 10.96L14.89 10.97L14.92 10.99L14.96 11L15 11.01L15 11.01L15.01 11.01L15.02 11.01L15.04 11.02L15.05 11.02L15.06 11.02L15.07 11.02L15.08 11.03L15.09 11.03L15.1 11.03L15.11 11.03L15.17 11.04L15.24 11.04L15.3 11.03L15.36 11.01L15.41 10.99L15.46 10.96L15.51 10.92L15.54 10.87L15.57 10.82L15.59 10.77L15.6 10.71L15.59 10.65L15.58 10.59L15.56 10.54L15.53 10.49L15.49 10.44L15.45 10.4L15.39 10.37L15.33 10.34L15.27 10.32L15.26 10.32L15.25 10.32L15.22 10.31L15.2 10.3L15.19 10.3L15.18 10.3L15.17 10.3L15.16 10.3L15.12 10.29L15.09 10.28L15.05 10.28L15.01 10.28L14.98 10.28L14.95 10.28L14.91 10.27L14.88 10.27L14.84 10.27L14.8 10.27L14.73 10.26L14.65 10.25L14.58 10.24L14.51 10.24L14.44 10.23L14.38 10.22L14.31 10.2L14.25 10.19L14.19 10.18L14.13 10.16L14.11 10.15L14.09 10.14L14.07 10.12L14.05 10.1L14.03 10.08L14.02 10.06L14 10.05L13.99 10.03L13.98 10.01L13.97 10L13.82 9.96L13.84 9.79L13.85 9.63L13.86 9.46L13.86 9.29L13.86 9.12L13.85 8.95L13.83 8.77L13.81 8.6L13.78 8.43L13.74 8.26L13.7 8.08L13.65 7.91L13.59 7.75L13.53 7.59L13.46 7.43L13.39 7.27L13.31 7.12L13.22 6.97L13.13 6.82L13.04 6.68L13.07 6.65L13.11 6.61L13.14 6.59L13.15 6.58L13.16 6.57L13.17 6.56L13.17 6.54L13.17 6.52L13.18 6.5L13.18 6.48L13.18 6.46L13.19 6.44L13.2 6.42L13.21 6.4L13.22 6.38L13.24 6.36L13.29 6.32L13.33 6.28L13.38 6.24L13.44 6.2L13.49 6.17L13.55 6.13L13.61 6.09L13.67 6.05L13.73 6.01L13.8 5.98L13.83 5.96L13.86 5.94L13.89 5.92L13.92 5.91L13.95 5.89L13.98 5.88L14.02 5.86L14.05 5.84L14.08 5.82L14.11 5.8L14.12 5.79L14.13 5.79L14.13 5.78L14.15 5.77L14.17 5.75L14.19 5.74L14.19 5.73L14.24 5.69L14.28 5.64L14.32 5.59L14.34 5.53L14.35 5.47L14.36 5.41L14.36 5.35L14.34 5.3L14.32 5.25L14.29 5.2L14.24 5.15L14.19 5.12L14.14 5.09L14.08 5.08L14.02 5.07L13.96 5.07L13.9 5.08L13.84 5.1L13.78 5.13L13.73 5.16L13.71 5.18L13.68 5.2L13.67 5.2L13.67 5.21L13.66 5.22L13.65 5.22L13.64 5.23L13.61 5.25L13.59 5.28L13.56 5.3L13.54 5.33L13.51 5.35L13.49 5.38L13.47 5.4L13.44 5.43L13.42 5.46L13.4 5.48L13.34 5.54L13.29 5.59L13.24 5.64L13.19 5.69L13.14 5.73L13.09 5.78L13.04 5.82L12.99 5.86L12.94 5.89L12.89 5.93L12.87 5.94L12.84 5.95L12.82 5.95L12.79 5.95L12.77 5.96L12.74 5.96L12.72 5.95L12.7 5.95L12.68 5.95L12.66 5.95L12.52 6.05L12.27 5.81L12 5.59L11.72 5.39L11.42 5.21L11.11 5.05L10.79 4.91L10.46 4.79L10.11 4.7L9.77 4.63L9.41 4.59L9.41 4.57L9.41 4.56L9.41 4.54L9.41 4.52L9.41 4.5L9.41 4.46L9.4 4.43L9.4 4.43L9.39 4.41L9.37 4.4L9.36 4.38L9.34 4.37L9.33 4.35L9.32 4.34L9.3 4.32L9.29 4.3L9.29 4.27L9.28 4.24L9.28 4.18L9.28 4.12L9.28 4.06L9.28 4L9.28 3.93L9.29 3.87L9.3 3.8L9.31 3.73L9.31 3.66L9.32 3.58L9.33 3.55L9.34 3.51L9.34 3.48L9.35 3.45L9.35 3.41L9.36 3.38L9.36 3.34L9.37 3.31L9.37 3.27L9.38 3.24L9.38 3.23L9.38 3.21L9.38 3.2L9.37 3.15L9.37 3.14L9.37 3.13L9.37 3.07L9.35 3L9.33 2.95L9.3 2.89L9.26 2.85L9.22 2.81L9.17 2.77L9.12 2.75L9.06 2.73L9 2.73L8.93 2.76L8.87 2.8Z" />
  <path fill="rgb(29, 99, 237)"
    d="M8.42 7.47C8.42 7.47 8.41 7.47 8.41 7.47C8.4 7.64 8.26 7.78 8.08 7.78C8.01 7.78 7.94 7.76 7.89 7.72C7.89 7.72 7.89 7.72 7.88 7.72C6.92 7.05 6.38 6.68 6.27 6.61C6.77 6.13 7.4 5.78 8.13 5.62C8.27 5.59 8.4 5.57 8.53 5.55C8.52 5.81 8.48 6.45 8.42 7.47Z" />
  <path fill="rgb(29, 99, 237)"
    d="M11.71 6.61C11.61 6.68 11.07 7.05 10.11 7.71C10.11 7.71 10.11 7.71 10.11 7.71C9.97 7.81 9.77 7.79 9.65 7.65C9.61 7.6 9.59 7.53 9.58 7.46C9.58 7.46 9.58 7.46 9.58 7.46L9.47 5.55C10.56 5.87 11.31 6.22 11.71 6.61Z" />
  <path fill="rgb(29, 99, 237)"
    d="M7.16 8.6C7.16 8.61 7.16 8.61 7.16 8.61C7.29 8.72 7.31 8.92 7.2 9.05C7.15 9.11 7.09 9.14 7.03 9.16C7.03 9.16 7.03 9.16 7.03 9.17C5.9 9.49 5.27 9.66 5.14 9.7C5.05 8.84 5.25 8.01 5.69 7.32C5.89 7.49 6.38 7.92 7.16 8.6Z" />
  <path fill="rgb(29, 99, 237)"
    d="M12.78 8.47C12.88 8.88 12.9 9.29 12.86 9.69C12.74 9.66 12.11 9.48 10.97 9.16C10.97 9.16 10.97 9.15 10.97 9.15C10.8 9.11 10.69 8.94 10.73 8.77C10.75 8.7 10.79 8.64 10.84 8.6C10.84 8.6 10.84 8.6 10.84 8.6L12.3 7.32L12.3 7.32C12.55 7.81 12.72 8.19 12.78 8.47Z" />
  <path d="M9.3 8.7L9.68 9.16L9.54 9.73L9 9.98L8.46 9.72L8.32 9.15L8.7 8.7L9.3 8.7Z" />
  <path fill="rgb(29, 99, 237)"
    d="M10.71 10.27C10.71 10.26 10.71 10.26 10.71 10.26C11.88 10.45 12.53 10.56 12.66 10.58C12.37 11.36 11.83 12.04 11.1 12.49C11.05 12.37 10.8 11.78 10.34 10.71C10.34 10.71 10.34 10.71 10.34 10.71C10.27 10.55 10.34 10.37 10.5 10.29C10.54 10.27 10.59 10.26 10.63 10.26C10.63 10.26 10.63 10.26 10.63 10.26C10.66 10.26 10.69 10.26 10.71 10.27Z" />
  <path fill="rgb(29, 99, 237)"
    d="M7.67 10.52C7.69 10.59 7.68 10.66 7.65 10.72C7.65 10.72 7.66 10.72 7.66 10.72C7.21 11.78 6.96 12.37 6.91 12.49C6.21 12.05 5.65 11.39 5.35 10.59C5.48 10.57 6.13 10.46 7.29 10.27C7.29 10.27 7.29 10.27 7.29 10.27C7.31 10.27 7.33 10.27 7.36 10.27C7.36 10.27 7.36 10.27 7.36 10.27C7.54 10.34 7.65 10.42 7.67 10.52Z" />
  <path fill="rgb(29, 99, 237)"
    d="M9.14 11.07C9.21 11.1 9.26 11.15 9.29 11.21C9.29 11.21 9.29 11.21 9.3 11.21C9.87 12.21 10.19 12.77 10.25 12.89C10.13 12.93 10 12.96 9.87 12.99C9.14 13.15 8.41 13.1 7.76 12.88C7.82 12.77 8.14 12.21 8.71 11.21C8.71 11.21 8.71 11.21 8.71 11.21C8.77 11.11 8.87 11.04 8.99 11.04C9.04 11.04 9.09 11.05 9.14 11.07Z" />
</svg>